<svg xmlns="http://www.w3.org/2000/svg" version="1.1" xmlns:xlink="http://www.w3.org/1999/xlink" width="1500" height="243" viewBox="0 0 1500 243"><svg xml:space="preserve" width="1500" height="243" data-version="2" data-id="lg_cksSdClvBVuqHAxjd2" viewBox="0 0 571 243" x="0" y="0"><rect width="100%" height="100%" fill="transparent"></rect><path fill="#d8b90c" d="M565.498 121.69c0 10.676-4.569 18.727-12.577 21.68-28.116 10.377-56.254 20.65-84.38 30.997l-114.775 42.27-62.463 22.977c-3.941 1.446-7.837 1.342-11.779-.12q-61.084-22.499-122.19-44.938c-45.568-16.744-91.136-33.533-136.727-50.202-6.13-2.237-11.358-5.666-13.807-13.956-3.874-13.12 1.15-26.376 11.54-30.282 9.478-3.564 18.99-6.978 28.491-10.467L224.08 24.477l56.436-20.725q5.058-1.863 10.094 0l156.435 57.523q52.608 19.353 105.205 38.662c8.51 3.116 13.226 10.795 13.226 21.768Zm-508.072.254a16.29 21.321 0 0 0 12.212 20.516c6.767 2.46 13.568 4.741 20.346 7.112 63.784 22.29 127.568 44.551 191.34 66.916 2.95 1.029 5.65 1.014 8.612-.03 45.99-16.177 92.002-32.235 138.003-48.308 24.47-8.558 48.952-17.027 73.399-25.705 7.826-2.773 12.417-10.78 12.417-20.635 0-10.005-4.773-18.012-12.668-20.785-26.93-9.483-53.873-18.876-80.815-28.299q-65.435-22.872-130.848-45.848a14.468 18.936 0 0 0-7.804.06Q217.028 49.6 152.412 72.173q-41.376 14.463-82.74 28.97a16.177 21.172 0 0 0-12.258 20.8Z"></path><path fill="#d8b90c" d="M509.49 121.893a11.962 15.656 0 0 1-8.92 15.104q-32.011 11.257-64.046 22.44-73.546 25.704-147.082 51.469c-2.438.85-4.705 1.073-7.222.194-38.562-13.568-77.158-27.017-115.732-40.51q-47.561-16.61-95.111-33.325c-6.164-2.176-9.66-7.887-9.706-15.387-.046-7.53 3.656-13.523 9.865-15.685l85.782-29.97q62.963-21.991 125.904-44.088c1.971-.686 3.725-.254 5.57.388l91.547 31.996 119.046 41.584c6.46 2.252 10.15 8.082 10.105 15.82Z"></path><path fill="#fff" d="M186.815 136.58q-.72 0-.72-.53 0-.43.63-.58l1.1-.19q1.01-.19 1.32-.53.31-.33.31-1.34v-28.22q0-1.01-.31-1.35-.31-.33-1.32-.53l-1.1-.19q-.63-.14-.63-.57 0-.53.72-.53h16.13q1.1 0 1.2 1.1l.38 7.97q.1.82-.62.82-.58 0-.67-.63l-.29-1.77q-.53-3.27-2.16-4.78-1.63-1.51-4.51-1.51-1.92 0-2.67.55-.74.55-.74 1.94v11.57q0 .67.67.67h2.4q2.11 0 2.59-2.25l.48-2.4q.2-.72.82-.63.53.1.53.82v10.8q0 .72-.53.82-.62.09-.82-.63l-.48-2.35q-.33-1.68-.93-2.21-.6-.53-1.71-.53h-2.35q-.67 0-.67.68v12.04q0 1.73.89 2.5t3.24.77q2.4 0 4.1-1.23 1.71-1.22 2.38-4.58l.57-2.83q.15-.63.72-.63.68 0 .58.82l-.48 8.54q-.1 1.11-1.2 1.11Z" paint-order="stroke"></path><rect width="19.3" height="34.56" x="-9.65" y="-17.28" fill="none" rx="0" ry="0" transform="translate(196.24 119.8)"></rect><path fill="#fff" d="M212.685 137.01q-2.01 0-3.31-1.27-1.29-1.27-1.29-3.39 0-2.06 1.29-3.91 1.3-1.85 3.55-3.33 2.26-1.49 5.14-2.4.62-.2.62-.82v-4.37q0-2.3-.72-3.29-.72-.98-1.96-.98-1.2 0-2.19 1.08-.98 1.08-1.41 3.62-.24 1.54-1.04 2.24-.79.69-1.6.69-1.35 0-1.35-1.34 0-1.39.79-2.76.8-1.37 2.09-2.5 1.3-1.13 2.83-1.8 1.54-.67 3.08-.67 4.75 0 4.75 5.52v14.69q0 2.01 1.01 2.01.62 0 1.15-.84.53-.84.53-2.85 0-.77.62-.77.58 0 .58.82 0 3.5-1.23 5.06-1.22 1.56-2.76 1.56-1.15 0-1.82-.94-.67-.93-.91-2.23-.05-.48-.41-.5-.36-.03-.7.45-1.15 1.59-2.35 2.4-1.2.82-2.98.82m1.3-2.21q1.25 0 2.3-.89 1.06-.88 1.73-2.37.67-1.49.67-3.36v-3.51q0-.91-1-.52-2.93 1.05-4.54 2.9-1.61 1.85-1.61 4.44 0 3.31 2.45 3.31" paint-order="stroke"></path><rect width="17.76" height="25.2" x="-8.88" y="-12.6" fill="none" rx="0" ry="0" transform="translate(217.47 124.91)"></rect><path fill="#fff" d="M232.365 137.01q-1.1 0-2.35-.26-1.25-.27-2.01-.65-.44-.24-.44-.82l-.14-5.37q0-.82.62-.82.53 0 .72.77.82 3.41 2 4.65 1.17 1.25 2.85 1.25 1.39 0 2.31-1.08.91-1.08.91-3t-1.06-3.41q-1.05-1.48-3.55-3.26-2.5-1.68-3.65-3.38-1.15-1.71-1.15-3.72 0-2.74 1.92-4.42 1.92-1.68 5.09-1.68.96 0 1.87.22.91.21 1.63.69.43.29.43.77l.1 5.28q0 .72-.58.72-.33 0-.48-.22-.14-.21-.24-.55-.96-3.12-1.92-4.34-.96-1.23-2.35-1.23-1.25 0-2.06.87-.82.86-.82 2.16 0 1.68 1.01 2.93 1.01 1.24 3.65 3.07 2.4 1.73 3.62 3.72 1.23 1.99 1.23 4.34 0 3.07-1.97 4.92t-5.19 1.85" paint-order="stroke"></path><rect width="12.1" height="25.2" x="-6.05" y="-12.6" fill="none" rx="0" ry="0" transform="translate(233.97 124.91)"></rect><path fill="#fff" d="M244.565 146.42q-1.3 0-2.07-.89-.77-.89-.77-2.04 0-.91.53-1.54.53-.62 1.44-.62.77 0 1.11.34.33.33.48.76.14.44.28.77.15.34.58.34.53 0 .96-.75.43-.74 1.2-3.14.48-1.44.6-2.5.12-1.05-.05-2.25-.17-1.2-.74-2.93l-5.23-16.66q-.34-1.15-.65-1.48-.31-.34-.99-.48l-.72-.15q-.62-.14-.62-.62t.67-.48h7.92q.67 0 .67.48 0 .53-.62.62l-.77.1q-1.15.14-1.46.55-.31.41.02 1.46l4.23 14.07q.14.48.45.48t.46-.48l4.08-13.2q.38-1.3.21-1.95-.16-.64-1.36-.84l-1.01-.19q-.63-.14-.63-.62t.68-.48h6.09q.67 0 .67.53 0 .48-.57.67l-.43.14q-.72.24-1.2.87-.48.62-1.01 2.16l-7.15 22.32q-1.06 3.36-1.9 4.99-.84 1.63-1.61 2.13-.77.51-1.77.51" paint-order="stroke"></path><rect width="20.3" height="34.32" x="-10.15" y="-17.16" fill="none" rx="0" ry="0" transform="translate(250.56 129.76)"></rect><path fill="#fff" d="M283.105 136.1q-.19 0-.43-.15-.24-.14-.34-.62l-7.25-29.42q-.04-.34-.28-.32-.24.03-.24.36l-.96 26.5q-.05 1.34.43 2.04t1.68.89l.62.09q.63.05.63.58 0 .53-.72.53h-6.87q-.72 0-.72-.53t.63-.58l.62-.09q1.25-.19 1.7-.89.46-.7.51-2.04l.96-27.26q.05-1.01-.29-1.35-.34-.33-1.44-.53l-1.1-.19q-.63-.14-.63-.57 0-.53.72-.53h5.76q1.49 0 1.83 1.44l5.8 23.95q.1.34.32.34.21 0 .26-.34l6.05-24.19q.29-1.2 1.53-1.2h5.67q.72 0 .72.53 0 .43-.63.57l-1.1.19q-1.01.2-1.34.53-.34.34-.29 1.35l.96 28.22q.05 1.01.33 1.34.29.34 1.3.53l1.1.19q.63.15.63.58 0 .53-.72.53h-8.69q-.72 0-.72-.53 0-.43.62-.58l1.11-.19q1.01-.19 1.34-.53.34-.33.29-1.34l-.82-27.46q0-.33-.21-.36-.22-.02-.31.27l-7.3 29.47q-.1.48-.31.62-.22.15-.41.15" paint-order="stroke"></path><rect width="30.58" height="34.56" x="-15.29" y="-17.28" fill="none" rx="0" ry="0" transform="translate(284.44 119.8)"></rect><path fill="#fff" d="M308.645 137.01q-2.31 0-4.13-1.54-1.83-1.53-2.91-4.34-1.08-2.81-1.08-6.5 0-3.8 1.11-6.68 1.1-2.88 3.02-4.51t4.27-1.63q2.84 0 4.59 2.33t1.75 7.56q0 1.58-1.2 1.58h-9.12q-.96 0-.96 1.11 0 5.08 1.49 7.63 1.49 2.54 3.79 2.54 1.82 0 2.98-1.29 1.15-1.3 1.87-4.37.14-.53.62-.53.58 0 .43.96-.76 4.27-2.44 5.98-1.68 1.7-4.08 1.7m-3.84-14.93h4.84q2.31 0 2.31-2.4 0-3.12-.77-4.89-.77-1.78-2.3-1.78-1.88 0-3.15 2.16t-1.65 6.14q-.1.77.72.77" paint-order="stroke"></path><rect width="14.74" height="25.2" x="-7.37" y="-12.6" fill="none" rx="0" ry="0" transform="translate(308.4 124.91)"></rect><path fill="#fff" d="M325.685 137.01q-2.31 0-4.13-1.54-1.83-1.53-2.91-4.34-1.08-2.81-1.08-6.5 0-3.8 1.11-6.68 1.1-2.88 3.02-4.51t4.27-1.63q2.84 0 4.59 2.33t1.75 7.56q0 1.58-1.2 1.58h-9.12q-.96 0-.96 1.11 0 5.08 1.49 7.63 1.49 2.54 3.79 2.54 1.82 0 2.98-1.29 1.15-1.3 1.87-4.37.14-.53.62-.53.58 0 .43.96-.76 4.27-2.44 5.98-1.68 1.7-4.08 1.7m-3.84-14.93h4.84q2.31 0 2.31-2.4 0-3.12-.77-4.89-.77-1.78-2.3-1.78-1.88 0-3.15 2.16t-1.65 6.14q-.1.77.72.77" paint-order="stroke"></path><rect width="14.74" height="25.2" x="-7.37" y="-12.6" fill="none" rx="0" ry="0" transform="translate(325.44 124.91)"></rect><path fill="#fff" d="M340.565 137.01q-1.68 0-2.76-1.18-1.08-1.17-1.08-3.86v-17.95q0-.58-.58-.58h-1.39q-.77 0-.77-.57 0-.39.43-.68 1.59-1.1 2.55-2.37.96-1.27 1.68-3.48.33-1.01.81-1.01.53 0 .53.77v5.33q0 .67.67.67h3.12q.77 0 .77.67t-.77.67h-3.12q-.67 0-.67.67v17.91q0 1.05.34 1.65.33.6 1.24.6 1.01 0 1.66-1 .65-1.01.84-3.27.1-.67.62-.67.58 0 .58.72-.14 3.7-1.51 5.33t-3.19 1.63" paint-order="stroke"></path><rect width="11.28" height="31.68" x="-5.64" y="-15.84" fill="none" rx="0" ry="0" transform="translate(340.13 121.67)"></rect></svg></svg>